<?xml version="1.0" encoding="utf-8"?>
<!-- Generator: Adobe Illustrator 14.0.0, SVG Export Plug-In . SVG Version: 6.00 Build 43363)  -->
<!DOCTYPE svg PUBLIC "-//W3C//DTD SVG 1.0//EN" "http://www.w3.org/TR/2001/REC-SVG-20010904/DTD/svg10.dtd">
<svg version="1.0" id="Layer_1" xmlns="http://www.w3.org/2000/svg" xmlns:xlink="http://www.w3.org/1999/xlink" x="0px" y="0px"
	 width="67.488px" height="100px" viewBox="0 0 67.488 100" enable-background="new 0 0 67.488 100" xml:space="preserve">
<path d="M67.487,65.037v-23.6l-7.285-0.472V26.458v0C60.202,11.868,48.333,0,33.744,0C19.155,0,7.286,11.868,7.286,26.458v0v14.507
	L0,41.437v23.6h0v9.179h0v23.6L33.744,100h0h0l33.743-2.185v-23.6h0.001L67.487,65.037L67.487,65.037z M33.744,39.252L33.744,39.252
	l-18.471,1.196v-13.99v0c0-10.184,8.286-18.469,18.471-18.469s18.47,8.285,18.47,18.469v0v13.99L33.744,39.252L33.744,39.252z"/>
</svg>
